<svg width="265" height="48" viewBox="0 0 265 48" fill="none" xmlns="http://www.w3.org/2000/svg">
<path d="M57.593 27.166V14.083H62.9136V36.662H57.7546V32.6489H57.5194C57.0098 33.9132 56.1721 34.947 55.0061 35.7507C53.8499 36.5542 52.4241 36.956 50.7291 36.956C49.2495 36.956 47.9414 36.6278 46.8046 35.971C45.6778 35.3048 44.796 34.3395 44.1591 33.0753C43.5222 31.8013 43.2036 30.2627 43.2036 28.4595V14.083H48.5244V27.6363C48.5244 29.0671 48.9162 30.2038 49.7002 31.0467C50.484 31.8895 51.5129 32.3108 52.7867 32.3108C53.5707 32.3108 54.33 32.1197 55.0648 31.7375C55.7998 31.3554 56.4024 30.787 56.8726 30.0324C57.3528 29.2681 57.593 28.3124 57.593 27.166ZM74.8813 37.1176C73.4506 37.1176 72.1622 36.8629 71.0157 36.3533C69.8791 35.8338 68.9776 35.0695 68.3113 34.0601C67.6547 33.0507 67.3265 31.8062 67.3265 30.3265C67.3265 29.0525 67.5618 27.999 68.0321 27.166C68.5025 26.3328 69.1441 25.6666 69.9575 25.1667C70.7708 24.667 71.6869 24.2898 72.706 24.0348C73.7349 23.7704 74.798 23.5792 75.8955 23.4615C77.2181 23.3245 78.2911 23.2018 79.1143 23.0941C79.9373 22.9764 80.535 22.8 80.9073 22.5649C81.2895 22.3198 81.4806 21.9426 81.4806 21.4331V21.3449C81.4806 20.2374 81.1524 19.38 80.4958 18.7724C79.8394 18.1649 78.8938 17.8609 77.6591 17.8609C76.356 17.8609 75.3221 18.1452 74.5578 18.7136C73.8034 19.2818 73.2939 19.9531 73.0294 20.7273L68.0615 20.0218C68.4533 18.6498 69.1 17.5034 70.0016 16.582C70.9031 15.6511 72.0053 14.9554 73.3086 14.4947C74.6118 14.0243 76.0522 13.7892 77.6298 13.7892C78.7174 13.7892 79.8002 13.9166 80.878 14.1712C81.9559 14.426 82.9405 14.8475 83.8322 15.4355C84.7239 16.0136 85.4392 16.8025 85.9781 17.802C86.5268 18.8018 86.8012 20.0512 86.8012 21.5506V36.662H81.6864V33.5604H81.51C81.1867 34.1875 80.7309 34.7756 80.1432 35.3243C79.565 35.8633 78.8349 36.2994 77.9531 36.6325C77.0811 36.956 76.0571 37.1176 74.8813 37.1176ZM76.2628 33.2074C77.3309 33.2074 78.2569 32.9968 79.0408 32.5754C79.8246 32.1443 80.4273 31.5759 80.8486 30.8703C81.2798 30.1647 81.4952 29.3954 81.4952 28.5624V25.9017C81.3287 26.039 81.0445 26.1664 80.6427 26.284C80.2509 26.4015 79.8099 26.5045 79.3199 26.5927C78.83 26.6809 78.3451 26.7592 77.8649 26.8278C77.3847 26.8965 76.9683 26.9551 76.6157 27.0043C75.8218 27.112 75.1115 27.2884 74.4844 27.5334C73.8573 27.7783 73.3624 28.1214 72.9999 28.5624C72.6373 28.9936 72.4561 29.5522 72.4561 30.2383C72.4561 31.2182 72.8138 31.958 73.5291 32.4579C74.2444 32.9576 75.1556 33.2074 76.2628 33.2074ZM97.4719 6.55689V36.662H92.1513V6.55689H97.4719ZM102.943 36.662V14.083H108.264V36.662H102.943ZM105.618 10.8786C104.775 10.8786 104.05 10.5992 103.443 10.0407C102.835 9.47228 102.532 8.79126 102.532 7.99728C102.532 7.1938 102.835 6.51261 103.443 5.95406C104.05 5.38567 104.775 5.10156 105.618 5.10156C106.471 5.10156 107.196 5.38567 107.794 5.95406C108.401 6.51261 108.704 7.1938 108.704 7.99728C108.704 8.79126 108.401 9.47228 107.794 10.0407C107.196 10.5992 106.471 10.8786 105.618 10.8786ZM161.297 37.1176C159.866 37.1176 158.578 36.8629 157.432 36.3533C156.295 35.8338 155.394 35.0695 154.727 34.0601C154.071 33.0507 153.743 31.8062 153.743 30.3265C153.743 29.0525 153.977 27.999 154.448 27.166C154.919 26.3328 155.561 25.6666 156.373 25.1667C157.187 24.667 158.103 24.2898 159.122 24.0348C160.151 23.7704 161.214 23.5792 162.311 23.4615C163.634 23.3245 164.708 23.2018 165.531 23.0941C166.353 22.9764 166.95 22.8 167.324 22.5649C167.705 22.3198 167.897 21.9426 167.897 21.4331V21.3449C167.897 20.2374 167.568 19.38 166.911 18.7724C166.255 18.1649 165.31 17.8609 164.075 17.8609C162.771 17.8609 161.738 18.1452 160.975 18.7136C160.219 19.2818 159.71 19.9531 159.445 20.7273L154.477 20.0218C154.87 18.6498 155.516 17.5034 156.417 16.582C157.32 15.6511 158.421 14.9554 159.725 14.4947C161.027 14.0243 162.467 13.7892 164.045 13.7892C165.132 13.7892 166.216 13.9166 167.295 14.1712C168.372 14.426 169.357 14.8475 170.248 15.4355C171.14 16.0136 171.856 16.8025 172.395 17.802C172.943 18.8018 173.218 20.0512 173.218 21.5506V36.662H168.102V33.5604H167.926C167.602 34.1875 167.147 34.7756 166.56 35.3243C165.982 35.8633 165.251 36.2994 164.369 36.6325C163.497 36.956 162.474 37.1176 161.297 37.1176ZM162.679 33.2074C163.746 33.2074 164.673 32.9968 165.458 32.5754C166.241 32.1443 166.844 31.5759 167.264 30.8703C167.695 30.1647 167.912 29.3954 167.912 28.5624V25.9017C167.744 26.039 167.461 26.1664 167.059 26.284C166.667 26.4015 166.226 26.5045 165.736 26.5927C165.246 26.6809 164.762 26.7592 164.281 26.8278C163.801 26.8965 163.383 26.9551 163.031 27.0043C162.238 27.112 161.528 27.2884 160.9 27.5334C160.273 27.7783 159.779 28.1214 159.416 28.5624C159.053 28.9936 158.872 29.5522 158.872 30.2383C158.872 31.2182 159.23 31.958 159.946 32.4579C160.661 32.9576 161.572 33.2074 162.679 33.2074ZM189.84 14.083V18.1991H176.863V14.083H189.84ZM180.067 8.67355H185.388V29.8707C185.388 30.5862 185.495 31.1349 185.71 31.5172C185.936 31.8895 186.229 32.1443 186.592 32.2815C186.955 32.4187 187.357 32.4872 187.798 32.4872C188.131 32.4872 188.434 32.4628 188.709 32.4138C188.992 32.3648 189.209 32.3207 189.355 32.2815L190.251 36.4415C189.968 36.5396 189.562 36.6473 189.031 36.765C188.514 36.8826 187.876 36.9511 187.121 36.9708C185.788 37.0099 184.587 36.8089 183.52 36.3679C182.452 35.9173 181.605 35.2215 180.978 34.2806C180.36 33.3399 180.057 32.1639 180.067 30.7527V8.67355ZM194.291 36.662V14.083H199.449V17.8463H199.685C200.097 16.5428 200.801 15.5385 201.802 14.8327C202.809 14.1174 203.961 13.7597 205.255 13.7597C205.549 13.7597 205.878 13.7745 206.239 13.8038C206.612 13.8235 206.921 13.8578 207.165 13.9066V18.8018C206.941 18.7232 206.583 18.6547 206.093 18.596C205.613 18.5273 205.147 18.4931 204.697 18.4931C203.725 18.4931 202.855 18.7037 202.08 19.1251C201.317 19.5367 200.715 20.11 200.272 20.845C199.833 21.58 199.612 22.4277 199.612 23.3881V36.662H194.291ZM210.7 36.662V14.083H216.021V36.662H210.7ZM213.375 10.8786C212.532 10.8786 211.808 10.5992 211.2 10.0407C210.593 9.47228 210.288 8.79126 210.288 7.99728C210.288 7.1938 210.593 6.51261 211.2 5.95406C211.808 5.38567 212.532 5.10156 213.375 5.10156C214.228 5.10156 214.952 5.38567 215.551 5.95406C216.158 6.51261 216.462 7.1938 216.462 7.99728C216.462 8.79126 216.158 9.47228 215.551 10.0407C214.952 10.5992 214.228 10.8786 213.375 10.8786ZM225.844 14.083L230.399 22.4179L235.028 14.083H240.66L233.853 25.3726L240.777 36.662H235.176L230.399 28.5329L225.667 36.662H220.022L226.902 25.3726L220.199 14.083H225.844Z" fill="#083C74"/>
<path d="M0.369881 23.6752C2.45549 34.515 12.73 41.4743 23.5684 39.3883C23.9477 39.3154 24.5978 39.1902 25.2378 39.0107L32.8487 47.6068C33.0633 47.8466 33.3866 48.0655 33.8201 47.9818L41.1359 46.5738C42.003 46.4071 42.2696 45.4566 41.69 44.7811L32.5929 35.1784C37.8553 30.3999 40.6891 23.2222 39.3335 16.1764C37.2479 5.33681 26.8983 -1.72066 16.0601 0.365301C5.22174 2.45126 -1.71574 12.8355 0.369881 23.6752ZM9.04043 22.0065C7.89342 16.0446 11.8217 10.174 17.7286 9.03702C23.6897 7.8899 29.5157 11.8834 30.6628 17.8451C31.7994 23.7527 27.8609 29.5693 21.8997 30.7166C15.9929 31.8534 10.1772 27.9142 9.04043 22.0065Z" fill="#EE6C4D"/>
<path d="M144.891 37.3912L138.292 14.0262L137.915 14.0309L133.405 36.8888L129.425 37.5856L119.614 15.9858L119.345 15.989L118.855 37.0715L114.493 37.3419L116.177 8.37452L126.842 7.80935L131.579 28.8262L136.484 7.47266L147.163 7.98524L148.87 36.6944L144.891 37.3912Z" fill="#EE6C4D"/>
<path d="M255.472 6.27344H257.408L259.999 12.5995H260.102L262.693 6.27344H264.629V15.0038H263.111V9.00593H263.03L260.617 14.9782H259.484L257.071 8.99314H256.99V15.0038H255.472V6.27344Z" fill="#083C74"/>
<path d="M247.164 7.59919V6.27344H254.13V7.59919H251.431V15.0038H249.862V7.59919H247.164Z" fill="#083C74"/>
</svg>
