<svg width="200" height="45" viewBox="0 0 200 45" fill="none" xmlns="http://www.w3.org/2000/svg">
<g clip-path="url(#clip0_1118_500)">
<path d="M55.4769 1.82007H64.7097V20.3817L81.7376 1.82007H92.889L75.8019 19.8353L93.6683 44.2806H82.5769L69.567 26.2046L64.7105 31.2995V44.2798H55.4777V1.82007H55.4769Z" fill="#919498"/>
<path d="M88.7615 28.2056V28.0848C88.7615 18.7432 96.1957 11.1609 106.209 11.1609C116.221 11.1609 123.536 18.6223 123.536 27.9632V28.0848C123.536 37.4264 116.101 45.0079 106.089 45.0079C96.0757 45.0079 88.7615 37.5472 88.7615 28.2056ZM114.542 28.2056V28.0848C114.542 23.2924 111.125 19.1072 106.089 19.1072C101.052 19.1072 97.7551 23.1707 97.7551 27.9632V28.0848C97.7551 32.8764 101.172 37.0616 106.209 37.0616C111.245 37.0616 114.542 32.998 114.542 28.2056Z" fill="#919498"/>
<path d="M126.052 35.0599V19.6529H122.215V11.7682H126.052V3.4579H135.166V11.7682H142.72V19.6537H135.166V33.5445C135.166 35.6671 136.065 36.6984 138.103 36.6984C139.675 36.7064 141.222 36.3096 142.6 35.5455V42.9462C140.681 44.0991 138.463 44.8263 135.406 44.8263C129.83 44.8263 126.053 42.5821 126.053 35.0607L126.052 35.0599ZM145.335 0H154.449V44.2799H145.335V0ZM157.743 0H167.336V8.18872H157.743V0ZM157.983 11.7674H167.096V44.2799H157.982V11.7674H157.983ZM170.562 11.7674H179.676V16.3774C181.774 13.6476 184.472 11.161 189.089 11.161C195.984 11.161 200.001 15.771 200.001 23.2324V44.2799H190.887V26.1431C190.887 21.7755 188.849 19.5313 185.372 19.5313C181.894 19.5313 179.676 21.7755 179.676 26.1431V44.2799H170.562V11.7674Z" fill="#919498"/>
<path d="M21.0675 1.79858L0 24.2134V44.2511L21.0371 22.93L41.9605 1.79858H21.0675Z" fill="#919498"/>
<path d="M0 44.251L21.0371 22.9299L41.9613 44.251H0Z" fill="#B5B5B5"/>
<path d="M0 1.79858H21.0675L0 24.2134V1.79858Z" fill="#B5B5B5"/>
</g>
<defs>
<clipPath id="clip0_1118_500">
<rect width="200" height="45.008" fill="white"/>
</clipPath>
</defs>
</svg>
