<svg width="200" height="57" viewBox="0 0 200 57" fill="none" xmlns="http://www.w3.org/2000/svg">
<g clipPath="url(#clip0_1120_215)">
<path d="M24.5374 47.9413C11.6353 47.9413 1.13354 37.4729 1.13354 24.5374C1.13354 11.6019 11.602 1.2002 24.5374 1.2002C37.4729 1.2002 47.9413 11.6686 47.9413 24.6041C47.9413 37.5396 37.4396 47.9413 24.5374 47.9413Z" fill="#FCDC00"/>
<path d="M24.5374 2.36706C36.7728 2.36706 46.7078 12.3021 46.7078 24.5374C46.7078 36.7728 36.7728 46.7078 24.5374 46.7078C12.302 46.7078 2.36706 36.7728 2.36706 24.5374C2.36706 12.3021 12.302 2.36706 24.5374 2.36706ZM24.5374 0C11.0018 0 0 11.0018 0 24.5374C0 38.073 11.0352 49.0748 24.5374 49.0748C38.0397 49.0748 49.0748 38.0397 49.0748 24.5374C49.0748 11.0352 38.0397 0 24.5374 0Z" fill="#173647"/>
<path d="M38.6397 23.6038L40.54 20.9034L38.5064 15.9692L35.2725 15.3691L33.8389 13.9355L33.3055 10.7017L28.3047 8.60132L25.6042 10.5016H23.5705L20.8701 8.60132L15.8693 10.635L15.2692 13.8689L13.7689 15.3024L10.535 15.9025L8.43469 20.8367L10.335 23.5371V25.5708L8.43469 28.2713L10.4684 33.2721L13.7022 33.8722L15.1358 35.3058L15.7359 38.5396L20.6701 40.64L23.3705 38.7397H25.4042L28.1046 40.64L33.1055 38.6063L33.7056 35.3724L35.2058 33.9389L38.4397 33.4055L40.54 28.4713L38.6397 25.7708V23.6038ZM37.9063 28.6713L36.8394 31.3051L34.139 31.7718L31.6386 34.2723L31.1718 36.9727L28.538 38.0396L26.3043 36.4726H22.8038L20.5034 38.0396L17.8696 36.9727L17.4029 34.2723L14.9691 31.7718L12.2687 31.3051L11.2018 28.6713L12.7687 26.4376V22.937L11.2018 20.6367L12.2687 18.0029L14.9691 17.5361L17.4695 15.0357L17.9363 12.3353L20.57 11.2684L22.8038 12.8354H26.3043L28.6047 11.2684L31.2385 12.3353L31.7052 15.0357L34.2057 17.5361L36.9061 18.0029L37.9729 20.6367L36.406 22.937V26.4376L37.9063 28.6713ZM33.2388 25.2041C33.2388 30.0049 29.3048 33.9389 24.504 33.9389C19.7032 33.9389 15.7692 30.0049 15.7692 25.2041C15.7692 22.9037 16.6361 20.67 18.3363 19.0364L19.9699 20.67C18.7697 21.8702 18.0696 23.5038 18.0696 25.2041C18.0696 27.7712 19.5699 29.9382 21.7036 30.9384L24.8708 25.9375L20.0033 24.9374L25.3375 15.4024L27.3712 16.536L23.5705 23.3038L28.7047 24.4373L24.1706 31.6051C24.304 31.6051 24.3707 31.6051 24.504 31.6051C28.0046 31.6051 30.8718 28.7713 30.8718 25.2374C30.8718 23.3371 30.0716 21.6035 28.5714 20.3699L30.0716 18.5363C32.1053 20.2033 33.2388 22.637 33.2388 25.2041Z" fill="#173647"/>
<path d="M74.8791 28.605C74.8791 30.572 74.1457 32.1056 72.7121 33.2725C71.2785 34.3393 69.3449 34.9727 66.8445 34.9727C64.144 34.9727 62.1103 34.6394 60.6768 33.9726V31.4722C61.6102 31.8722 62.6438 32.1389 63.7106 32.4057C64.7774 32.6057 65.8776 32.739 66.9445 32.739C68.7114 32.739 69.9783 32.4057 70.8785 31.7389C71.7453 31.0721 72.2454 30.1719 72.2454 28.9717C72.2454 28.1716 72.112 27.5382 71.7786 27.0714C71.4452 26.6047 70.9785 26.1379 70.2117 25.7045C69.4782 25.3045 68.378 24.8377 66.8445 24.271C64.7441 23.5375 63.2772 22.6374 62.377 21.6372C61.5102 20.637 61.0101 19.2701 61.0101 17.5698C61.0101 15.8029 61.6769 14.4693 62.9771 13.4358C64.2774 12.4023 66.011 11.8689 68.178 11.8689C70.4117 11.8689 72.5121 12.269 74.3457 13.0691L73.5456 15.3695C71.6453 14.5693 69.9116 14.236 68.1447 14.236C66.7111 14.236 65.6443 14.5027 64.9108 15.1028C64.1107 15.7029 63.7773 16.5363 63.7773 17.6032C63.7773 18.4033 63.9106 19.0368 64.1773 19.5035C64.4441 19.9702 64.9108 20.437 65.6776 20.8704C66.3444 21.2705 67.4446 21.7372 68.7781 22.2373C71.1452 23.0374 72.7788 24.0042 73.6456 24.9377C74.4791 25.7379 74.8791 27.0381 74.8791 28.605ZM92.5154 26.1046C92.5154 28.8717 91.8486 31.0388 90.415 32.539C88.9815 34.1059 87.1145 34.8394 84.6808 34.8394C83.1805 34.8394 81.847 34.506 80.6134 33.7725C79.4799 33.1058 78.5131 32.0056 77.913 30.7387C77.3129 29.3718 76.9795 27.8382 76.9795 26.0713C76.9795 23.3041 77.6463 21.2038 79.0798 19.6369C80.4467 18.0699 82.3804 17.3365 84.8141 17.3365C87.1812 17.3365 89.0815 18.1366 90.415 19.7035C91.8486 21.3038 92.5154 23.4375 92.5154 26.1046ZM79.6132 26.1046C79.6132 28.2716 80.0133 29.9052 80.9135 31.0388C81.8136 32.1723 83.0805 32.739 84.7141 32.739C86.4144 32.739 87.6813 32.2056 88.5147 31.0388C89.3815 29.9052 89.8149 28.2716 89.8149 26.1046C89.8149 23.9376 89.4149 22.304 88.5147 21.2371C87.6479 20.1703 86.3477 19.5368 84.6474 19.5368C82.9471 19.5368 81.7469 20.0703 80.8468 21.1704C80.08 22.304 79.6132 23.9376 79.6132 26.1046ZM106.118 34.5393L105.584 32.1056H105.451C104.651 33.1724 103.751 33.8726 102.95 34.2726C102.15 34.6727 101.05 34.806 99.85 34.806C98.1497 34.806 96.8828 34.406 95.916 33.5058C94.9825 32.639 94.4824 31.4055 94.4824 29.7719C94.4824 26.4046 97.1828 24.571 102.65 24.4377L105.484 24.371V23.3041C105.484 21.9372 105.218 21.0037 104.617 20.4036C104.084 19.8035 103.117 19.4702 101.917 19.4702C100.483 19.4702 98.9498 19.8702 97.1162 20.7704L96.316 18.8034C97.1162 18.3366 98.083 18.0032 99.0165 17.7365C100.017 17.4698 100.983 17.3365 101.984 17.3365C104.017 17.3365 105.484 17.8032 106.451 18.7034C107.385 19.5702 107.951 21.0038 107.951 23.0374V34.606C107.951 34.5393 106.118 34.5393 106.118 34.5393ZM100.317 32.7724C101.95 32.7724 103.151 32.3723 104.117 31.4722C104.984 30.6053 105.484 29.3718 105.484 27.8382V26.2713L102.917 26.4047C100.883 26.4713 99.4165 26.8047 98.5164 27.3381C97.6496 27.8716 97.1495 28.7717 97.1495 29.9719C97.1495 30.9054 97.4162 31.6055 97.9496 32.0723C98.5497 32.5057 99.2832 32.7724 100.317 32.7724ZM119.587 34.8727C118.52 34.8727 117.486 34.6727 116.553 34.2726C115.686 33.8726 114.852 33.2725 114.252 32.3723H114.019C114.152 33.3725 114.219 34.2726 114.219 35.2061V42.1739H111.652V17.6365H113.752L114.086 19.9369H114.219C114.886 19.0034 115.653 18.3033 116.519 17.9032C117.386 17.5032 118.42 17.3031 119.487 17.3031C121.72 17.3031 123.487 18.0366 124.687 19.6035C125.888 21.1704 126.521 23.2375 126.521 26.0379C126.521 28.8051 125.921 30.9721 124.687 32.539C123.487 34.1393 121.787 34.8727 119.587 34.8727ZM119.22 19.5368C117.453 19.5368 116.253 20.0036 115.486 20.9704C114.752 21.9039 114.352 23.4708 114.286 25.5712V26.1046C114.286 28.4717 114.686 30.1719 115.486 31.1721C116.286 32.1723 117.52 32.739 119.287 32.739C120.787 32.739 121.92 32.1389 122.72 30.9721C123.521 29.8386 123.921 28.1383 123.921 26.1046C123.921 24.0042 123.521 22.3706 122.72 21.2371C121.854 20.0703 120.72 19.5368 119.22 19.5368ZM146.958 12.0356V26.638C146.958 29.2051 146.224 31.2388 144.657 32.7057C143.09 34.206 140.923 34.9394 138.223 34.9394C135.523 34.9394 133.422 34.206 131.922 32.7057C130.422 31.2055 129.688 29.2051 129.688 26.638V12.0356H132.322V26.7714C132.322 28.6717 132.855 30.0719 133.889 31.1054C134.922 32.1389 136.456 32.6057 138.423 32.6057C140.323 32.6057 141.79 32.1389 142.824 31.1054C143.857 30.0719 144.391 28.6717 144.391 26.7714V12.0356H146.958ZM151.425 34.5393V12.0356H154.059V34.5393C154.059 34.5393 151.425 34.5393 151.425 34.5393Z" fill="#173647"/>
<path d="M125.921 47.5079C125.921 47.5079 124.221 47.3079 123.554 47.3079C122.554 47.3079 121.987 47.6413 121.987 48.3747C121.987 49.1082 122.387 49.3082 123.821 49.7416C125.588 50.2084 126.188 50.6751 126.188 52.1087C126.188 53.9423 125.054 54.6758 123.421 54.6758C122.354 54.6758 120.72 54.3424 120.72 54.3424L120.853 53.2755C120.853 53.2755 122.487 53.4756 123.354 53.4756C124.354 53.4756 124.854 53.0088 124.854 52.1087C124.854 51.4419 124.454 51.1752 123.221 50.9085C121.454 50.4417 120.653 49.9083 120.653 48.4747C120.653 46.7744 121.72 46.1077 123.421 46.1077C124.487 46.1077 126.054 46.3744 126.054 46.3744L125.921 47.5079ZM129.455 46.3077H131.755L133.589 52.7421L135.423 46.3077H137.79V54.5424H136.423V47.4412H136.356L134.256 54.2757H132.822L130.722 47.4412H130.655V54.6091H129.288V46.3077H129.455ZM158.493 46.3077H164.494V47.5079H162.194V54.6091H160.827V47.5079H158.46V46.3077H158.493ZM170.395 46.3077C172.029 46.3077 172.895 46.9078 172.895 48.4747C172.895 49.4749 172.562 49.975 171.962 50.3084C172.695 50.5751 173.096 51.1085 173.096 52.2087C173.096 53.909 172.095 54.5758 170.462 54.5758H167.228V46.341H170.395V46.3077ZM168.595 47.4412V49.8083H170.362C171.162 49.8083 171.495 49.4082 171.495 48.6081C171.495 47.8079 171.095 47.4746 170.295 47.4746H168.595V47.4412ZM168.595 50.9751V53.4089H170.428C171.229 53.4089 171.795 53.1422 171.795 52.1087C171.795 51.1752 171.129 50.9085 170.428 50.9085H168.595V50.9751ZM176.429 46.3077H181.63V47.4412H177.763V49.8083H180.93V50.9418H177.763V53.3755H181.63V54.5091H176.429V46.3077ZM186.431 46.3077H189.065L191.099 54.5424H189.732L189.132 52.1087H186.298L185.698 54.5424H184.331L186.431 46.3077ZM186.631 50.9751H188.931L188.065 47.4746H187.465L186.631 50.9751ZM195.499 52.1087V54.5424H194.132V46.3077H197.233C199.067 46.3077 200 47.3079 200 49.2082C200 50.3417 199.533 51.4419 198.633 51.842L200 54.6091H198.5L197.3 52.1753H195.466V52.1087H195.499ZM197.233 47.4412H195.399V50.9418H197.233C198.233 50.9418 198.666 50.075 198.666 49.1748C198.666 48.2747 198.266 47.4412 197.233 47.4412ZM142.757 46.3077H145.391L147.425 54.5424H146.058L145.458 52.1087H142.624L142.024 54.5424H140.657L142.757 46.3077ZM142.89 50.9751H145.191L144.324 47.4746H143.691L142.89 50.9751ZM151.759 52.1087V54.5424H150.392V46.3077H153.492C155.326 46.3077 156.259 47.3079 156.259 49.2082C156.259 50.3417 155.793 51.4419 154.892 51.842L156.259 54.6091H154.759L153.559 52.1753H151.725V52.1087H151.759ZM153.559 47.4412H151.725V50.9418H153.559C154.559 50.9418 154.992 50.075 154.992 49.1748C154.992 48.2747 154.526 47.4412 153.559 47.4412ZM64.2107 53.0088C64.2107 53.5422 64.0107 53.9423 63.6106 54.209C63.2105 54.4757 62.6771 54.6758 62.0437 54.6758C61.3102 54.6758 60.7435 54.6091 60.3434 54.4091V53.7423C60.6101 53.8756 60.8768 53.9423 61.1435 54.009C61.4102 54.0757 61.7436 54.0757 62.0103 54.0757C62.4771 54.0757 62.8105 54.009 63.0772 53.809C63.3439 53.6089 63.4106 53.4089 63.4106 53.0755C63.4106 52.8755 63.3439 52.6754 63.2772 52.5421C63.2105 52.4087 63.0772 52.2754 62.8771 52.2087C62.6771 52.0753 62.4104 51.942 62.0103 51.8086C61.4769 51.6086 61.0768 51.3419 60.8101 51.0752C60.5434 50.8085 60.4767 50.4751 60.4767 50.0083C60.4767 49.5416 60.6768 49.2082 61.0102 48.8748C61.3436 48.6081 61.8103 48.4747 62.4437 48.4747C63.0438 48.4747 63.5773 48.6081 64.144 48.8081L63.944 49.4082C63.4772 49.2082 62.9438 49.0748 62.4437 49.0748C62.0437 49.0748 61.777 49.1415 61.5769 49.3415C61.3769 49.4749 61.2435 49.7416 61.2435 50.0083C61.2435 50.2084 61.3102 50.4084 61.3769 50.5417C61.4436 50.6751 61.5769 50.8085 61.777 50.8751C61.977 50.9418 62.2437 51.0752 62.5771 51.2085C63.1772 51.4086 63.6439 51.6753 63.8773 51.942C64.144 52.1753 64.2107 52.5087 64.2107 53.0088ZM66.111 50.0083V52.9755C66.111 53.3089 66.1777 53.6423 66.3777 53.7756C66.5111 53.9756 66.7778 54.0423 67.1779 54.0423C67.6446 54.0423 67.978 53.909 68.178 53.6423C68.3781 53.3755 68.5114 52.9755 68.5114 52.342V50.0083H69.1782V54.5424H68.6781L68.6114 53.9423H68.5448C68.4114 54.1423 68.2114 54.3424 67.9447 54.4757C67.6779 54.6091 67.4112 54.6758 67.0778 54.6758C66.5444 54.6758 66.1444 54.5424 65.8776 54.2757C65.6109 54.009 65.4776 53.6089 65.4776 52.9755V50.0083H66.111ZM72.9121 54.6758C72.6454 54.6758 72.3787 54.6091 72.112 54.5424C71.8453 54.4091 71.6453 54.2757 71.5119 54.0757H71.4452C71.4452 54.3424 71.5119 54.6091 71.5119 54.8091V56.7094H70.8451V50.1417H71.3786L71.4452 50.7418C71.6453 50.4751 71.8453 50.3417 72.0453 50.2084C72.2454 50.075 72.5121 50.075 72.8455 50.075C73.4456 50.075 73.9123 50.275 74.279 50.6751C74.6124 51.0752 74.7458 51.6753 74.7458 52.4421C74.7458 53.2088 74.6124 53.809 74.279 54.209C73.9457 54.4757 73.4789 54.6758 72.9121 54.6758ZM72.7788 50.5751C72.312 50.5751 71.9787 50.7084 71.7786 50.9751C71.5786 51.2419 71.4452 51.6419 71.4452 52.1753V52.3087C71.4452 52.9088 71.5786 53.3755 71.7786 53.6756C71.9787 53.9423 72.312 54.0757 72.7788 54.0757C73.1789 54.0757 73.4456 53.9423 73.7123 53.6089C73.9123 53.2755 74.0457 52.8755 74.0457 52.3087C74.0457 51.7753 73.9123 51.3085 73.7123 51.0085C73.5456 50.7751 73.2122 50.5751 72.7788 50.5751ZM78.213 54.6758C77.9463 54.6758 77.6796 54.6091 77.4129 54.5424C77.1462 54.4091 76.9462 54.2757 76.8128 54.0757H76.7461C76.7461 54.3424 76.8128 54.6091 76.8128 54.8091V56.7094H76.146V50.1417H76.6794L76.7461 50.7418C76.9461 50.4751 77.1462 50.3417 77.3462 50.2084C77.5463 50.075 77.813 50.075 78.1464 50.075C78.7465 50.075 79.2132 50.275 79.5799 50.6751C79.9133 51.0752 80.0467 51.6753 80.0467 52.4421C80.0467 53.2088 79.9133 53.809 79.5799 54.209C79.2799 54.4757 78.8131 54.6758 78.213 54.6758ZM78.1464 50.5751C77.6796 50.5751 77.3462 50.7084 77.1462 50.9751C76.9462 51.2419 76.8128 51.6419 76.8128 52.1753V52.3087C76.8128 52.9088 76.9462 53.3755 77.1462 53.6756C77.3462 53.9423 77.6796 54.0757 78.1464 54.0757C78.5464 54.0757 78.8131 53.9423 79.0798 53.6089C79.2799 53.2755 79.4132 52.8755 79.4132 52.3087C79.4132 51.7753 79.2799 51.3085 79.0798 51.0085C78.8798 50.7084 78.5464 50.5751 78.1464 50.5751ZM85.4476 52.3087C85.4476 53.0422 85.2475 53.6756 84.9141 54.0757C84.5141 54.4757 84.0473 54.6758 83.3472 54.6758C82.9472 54.6758 82.6138 54.6091 82.2804 54.4091C81.947 54.209 81.747 53.9423 81.5469 53.6089C81.3469 53.2755 81.2802 52.8755 81.2802 52.3087C81.2802 51.5752 81.4802 50.9418 81.8136 50.5417C82.147 50.1417 82.6804 49.9416 83.3806 49.9416C83.9807 49.9416 84.5141 50.1417 84.8808 50.5417C85.2142 51.0418 85.4476 51.5752 85.4476 52.3087ZM81.9136 52.3087C81.9136 52.9088 82.047 53.3089 82.247 53.6756C82.4471 54.009 82.7805 54.1423 83.2472 54.1423C83.7139 54.1423 84.0473 54.009 84.2474 53.6756C84.4474 53.4089 84.5808 52.9421 84.5808 52.3087C84.5808 51.7086 84.4474 51.3085 84.2474 51.0085C84.0473 50.7418 83.6473 50.5417 83.2472 50.5417C82.7805 50.5417 82.4471 50.6751 82.247 51.0085C82.047 51.3085 81.9136 51.7086 81.9136 52.3087ZM88.8148 49.9416C89.0148 49.9416 89.2149 49.9416 89.3482 50.0083L89.2815 50.6084C89.0815 50.5417 88.9481 50.5417 88.8148 50.5417C88.4814 50.5417 88.148 50.6751 87.8813 51.0085C87.6146 51.2752 87.4812 51.6753 87.4812 52.142V54.5758H86.8145V50.0417H87.3479L87.4146 50.8418C87.5479 50.5751 87.8146 50.3084 88.0147 50.175C88.2814 50.0083 88.5481 49.9416 88.8148 49.9416ZM92.182 54.0757C92.3154 54.0757 92.4487 54.0757 92.5154 54.0757C92.6488 54.0757 92.7154 54.009 92.7821 54.009V54.5424C92.7154 54.6091 92.5821 54.6091 92.4487 54.6091C92.3154 54.6091 92.182 54.6758 92.0487 54.6758C91.1819 54.6758 90.6818 54.209 90.6818 53.2422V50.5417H90.015V50.2084L90.6818 49.9416L90.9485 49.0082H91.3486V50.075H92.7154V50.6084H91.3486V53.3089C91.3486 53.5756 91.4152 53.7756 91.5486 53.909C91.782 54.009 91.9153 54.0757 92.182 54.0757ZM95.7159 54.6758C95.0492 54.6758 94.5157 54.4757 94.0823 54.0757C93.6823 53.6756 93.4822 53.1422 93.4822 52.3754C93.4822 51.6419 93.6823 51.0752 94.0157 50.6084C94.3491 50.2083 94.8825 49.9416 95.5159 49.9416C96.0493 49.9416 96.5161 50.1417 96.8828 50.4751C97.2162 50.8751 97.3496 51.3419 97.3496 51.9753V52.3754H94.249C94.249 52.9088 94.3824 53.3089 94.6491 53.5756C94.9158 53.8423 95.2492 53.9756 95.7159 53.9756C96.1827 53.9756 96.6494 53.8423 97.1495 53.6423V54.2424C96.8828 54.3757 96.6828 54.4424 96.4827 54.4424C96.2494 54.6091 96.0493 54.6758 95.7159 54.6758ZM95.5159 50.5084C95.1825 50.5084 94.8491 50.6418 94.6491 50.8418C94.4491 51.1085 94.3157 51.3752 94.249 51.842H96.6161C96.6161 51.4419 96.5494 51.1085 96.3494 50.8418C96.1827 50.6418 95.916 50.5084 95.5159 50.5084ZM101.784 53.9423C101.45 54.409 100.983 54.6091 100.283 54.6091C99.6833 54.6091 99.2165 54.4091 98.8498 54.009C98.5164 53.6089 98.3831 53.0088 98.3831 52.242C98.3831 51.4752 98.5164 50.8751 98.8498 50.4751C99.1832 50.075 99.6499 49.875 100.283 49.875C100.883 49.875 101.35 50.075 101.717 50.5417H101.784V50.2084V49.875V48.0413H102.45V54.5424H101.917L101.784 53.9423ZM100.45 54.0757C100.917 54.0757 101.25 53.9423 101.45 53.6756C101.65 53.4089 101.784 53.0088 101.784 52.4754V52.342C101.784 51.6753 101.65 51.2752 101.45 50.9751C101.25 50.6751 100.917 50.5751 100.45 50.5751C100.05 50.5751 99.7166 50.7084 99.5166 51.0418C99.3165 51.3752 99.1832 51.7753 99.1832 52.4087C99.1832 53.0088 99.3165 53.4089 99.5166 53.7089C99.6833 53.9423 100.05 54.0757 100.45 54.0757ZM108.618 49.9416C109.218 49.9416 109.685 50.1417 110.052 50.5417C110.385 50.9418 110.518 51.5419 110.518 52.3087C110.518 53.0422 110.385 53.6756 110.052 54.0757C109.718 54.4757 109.252 54.6758 108.618 54.6758C108.351 54.6758 108.085 54.6091 107.818 54.5424C107.551 54.4091 107.351 54.2757 107.218 54.0757H107.151L107.018 54.6758H106.551V48.1747H107.218V49.7416C107.218 50.075 107.218 50.4084 107.218 50.6751C107.485 50.1417 107.951 49.9416 108.618 49.9416ZM108.485 50.5751C108.018 50.5751 107.685 50.7084 107.485 50.9751C107.285 51.2419 107.151 51.7086 107.151 52.342C107.151 52.9421 107.285 53.4089 107.485 53.7089C107.685 53.9756 108.018 54.109 108.485 54.109C108.885 54.109 109.218 53.9756 109.418 53.6423C109.618 53.3089 109.752 52.9088 109.752 52.2754C109.752 51.6419 109.618 51.2752 109.418 50.9085C109.218 50.7084 108.951 50.5751 108.485 50.5751ZM111.119 50.0083H111.852L112.852 52.5754C113.052 53.1755 113.186 53.5756 113.252 53.8756C113.319 53.7423 113.386 53.4756 113.452 53.1422C113.586 52.8088 113.919 51.7086 114.586 49.975H115.319L113.352 55.1758C113.152 55.7093 112.952 56.0427 112.685 56.2427C112.419 56.4427 112.085 56.5761 111.752 56.5761C111.552 56.5761 111.352 56.5761 111.152 56.5094V55.976C111.285 55.976 111.485 56.0427 111.685 56.0427C112.152 56.0427 112.485 55.776 112.685 55.2425L112.952 54.5758L111.119 50.0083Z" fill="#173647"/>
</g>
<defs>
<clipPath id="clip0_1120_215">
<rect width="200" height="57" fill="white"/>
</clipPath>
</defs>
</svg>
