<svg width="200" height="56" viewBox="0 0 200 56" fill="none" xmlns="http://www.w3.org/2000/svg">
<g clipPath="url(#clip0_1120_222)">
<path d="M98.6156 0.513854C100.232 0.199347 101.878 0.00730599 103.526 0.000269029C104.089 -0.00381695 104.588 0.495808 104.589 1.05797C104.605 1.45318 104.35 1.7779 104.161 2.10058C102.325 5.1158 101.49 8.66425 101.429 12.173C101.353 15.4776 101.909 18.7722 102.861 21.93C103.151 22.8493 103.441 23.7703 103.824 24.6553C135.88 24.6543 167.935 24.6563 199.99 24.6553C199.993 25.3834 199.99 26.1113 199.991 26.8394H103.211C102.711 26.8798 102.226 26.5653 102.057 26.0952C100.66 22.8107 99.7662 19.314 99.4001 15.7639C98.9199 11.1913 99.484 6.41832 101.569 2.27866C98.0978 2.58386 94.6739 3.70943 91.8061 5.7127C88.9677 7.68146 86.7006 10.4057 85.0602 13.4311C83.9378 15.4413 83.0702 17.5871 82.411 19.7915C81.8176 21.7673 81.3684 23.7908 81.1369 25.8425C81.0854 26.3186 80.6857 26.7323 80.2085 26.788C79.9243 26.8202 79.6371 26.8032 79.353 26.806C53.0054 26.805 26.6588 26.806 0.311222 26.805C0.310201 26.078 0.311222 25.3499 0.310201 24.6219C26.5708 24.6197 52.8315 24.624 79.0921 24.6197C79.7028 20.5557 80.9547 16.5838 82.8456 12.9324C84.4585 9.86553 86.6002 7.03417 89.3172 4.861C91.9965 2.67375 95.2323 1.20132 98.6156 0.513854ZM84.9211 31.1014C86.4349 30.1063 88.2843 29.7818 90.069 29.7797C91.8264 29.7787 93.6475 30.0345 95.1886 30.9314C96.5415 31.7211 97.5589 33.0307 98.0725 34.5029C98.382 35.3746 98.5204 36.2976 98.5537 37.219C97.0682 37.292 95.5838 37.3645 94.0994 37.4364C93.9376 36.4606 93.6465 35.4291 92.8941 34.7385C92.161 34.079 91.1326 33.9033 90.1789 33.886C89.0463 33.8678 87.8301 34.0711 86.9441 34.8295C86.2515 35.4028 86.116 36.4817 86.5417 37.2532C86.8441 37.8193 87.4236 38.1549 87.9899 38.412C89.6977 39.1785 91.5582 39.4899 93.3199 40.1027C94.4564 40.4971 95.6061 40.9349 96.5688 41.6741C97.7589 42.5833 98.6104 43.9181 98.942 45.3781C99.3597 47.2317 99.2687 49.2448 98.4355 50.9751C97.8206 52.3251 96.7701 53.4819 95.4422 54.1573C93.8883 54.9612 92.1064 55.1916 90.3762 55.1999C88.5823 55.2021 86.7288 54.9128 85.1645 53.9875C83.7954 53.1865 82.7659 51.8882 82.1491 50.4402C81.6466 49.2783 81.3798 48.0263 81.2442 46.7716C82.6881 46.6148 84.132 46.4591 85.5771 46.3025C85.7987 47.5897 86.2 48.9325 87.1647 49.8649C87.9595 50.6405 89.085 50.9812 90.1761 51.0045C91.1994 51.0288 92.2754 50.9033 93.1629 50.3552C94.1003 49.7638 94.7729 48.6958 94.7254 47.5654C94.7345 46.8323 94.3926 46.0961 93.785 45.6735C92.9276 45.0586 91.8789 44.819 90.8859 44.5167C88.9961 43.9614 87.0384 43.5175 85.3234 42.5114C83.9602 41.7338 82.9187 40.4326 82.4101 38.9529C82.0389 37.8549 81.9561 36.6658 82.13 35.522C82.4164 33.7576 83.4034 32.077 84.9211 31.1014ZM0.00817871 30.1973C1.00618 30.1944 2.00429 30.1973 3.00127 30.1962C3.88101 34.3998 4.75472 38.6044 5.63151 42.8079C6.2158 45.6412 6.84992 48.4654 7.29473 51.324C7.63863 49.7486 7.96222 48.168 8.33427 46.5986C9.71851 41.1312 11.102 35.6636 12.4863 30.196C13.6602 30.196 14.8343 30.195 16.0081 30.197C17.0356 34.2379 18.0629 38.2784 19.0892 42.3194C19.8567 45.2841 20.4868 48.2863 20.8852 51.324C21.2532 49.3573 21.6698 47.4015 22.1016 45.4481C23.217 40.3637 24.3292 35.2795 25.4468 30.1962C26.4255 30.1962 27.4033 30.1952 28.3812 30.1973C26.3629 38.3869 24.3486 46.5776 22.3293 54.7682C21.3919 54.7682 20.4536 54.7682 19.5161 54.7673C18.3127 49.9274 17.1114 45.0871 15.9082 40.2475C15.3308 37.8874 14.717 35.5351 14.172 33.1671C13.7392 35.2935 13.184 37.3908 12.6622 39.4961L8.84297 54.7673C7.84997 54.7693 6.85696 54.7682 5.86407 54.7682C3.91142 46.5776 1.96082 38.3869 0.00817871 30.1973ZM31.5868 30.1962H34.507C34.507 38.3869 34.507 46.5776 34.506 54.7673C33.5332 54.7682 32.5604 54.7682 31.5867 54.7673C31.5858 46.5776 31.5868 38.3869 31.5868 30.1962ZM39.6885 30.1962C42.4632 30.1952 45.2368 30.1962 48.0116 30.1962C49.3939 30.1993 50.7843 30.1609 52.1545 30.3775C53.1404 30.5291 54.1405 30.8151 54.9382 31.4383C56.092 32.3321 56.7967 33.7003 57.1275 35.1008C57.556 37.0607 57.3164 39.255 56.1131 40.9069C54.9876 42.5453 53.0047 43.2985 51.1097 43.5877C51.7407 43.9386 52.3697 44.3136 52.8823 44.8274C54.0949 46.058 55.0029 47.5425 55.8451 49.0401C56.9413 50.949 58.0385 52.8573 59.1326 54.7684C57.9091 54.7695 56.6855 54.7684 55.4631 54.7684C54.3173 52.7835 53.2009 50.7823 52.0402 48.8055C51.3332 47.6376 50.6397 46.4504 49.7579 45.4018C49.2129 44.7467 48.49 44.2268 47.6658 43.9902C47.1177 43.8555 46.5485 43.8658 45.9883 43.8556C44.8598 43.8535 43.7312 43.8535 42.6028 43.8556C42.6018 47.4926 42.6037 51.1312 42.6018 54.7682C41.6299 54.7682 40.6593 54.7693 39.6886 54.7673C39.6875 46.5776 39.6875 38.3869 39.6885 30.1962ZM42.6027 32.9135C42.6027 35.6235 42.6017 38.3324 42.6027 41.0424C44.7758 41.0403 46.9488 41.0504 49.1219 41.0374C50.3192 41.004 51.5931 40.9141 52.6328 40.2557C54.6876 38.9066 54.9059 35.5393 53.0544 33.9247C52.1474 33.1327 50.8916 32.9346 49.7256 32.9153C47.3512 32.9092 44.977 32.9143 42.6027 32.9135ZM61.9761 30.1962H77.9346V33.0953C73.5885 33.0953 69.2425 33.0943 64.8975 33.0953C64.8964 35.6032 64.8964 38.1108 64.8975 40.6176C68.9654 40.6187 73.0336 40.6176 77.1014 40.6187C77.1026 41.5802 77.1014 42.5418 77.1014 43.5025C73.0335 43.5046 68.9653 43.5025 64.8975 43.5036C64.8964 46.2925 64.8952 49.0814 64.8975 51.8701C69.4134 51.8691 73.9293 51.8691 78.4453 51.8701C78.4465 52.8359 78.4465 53.8017 78.4453 54.7682H61.976C61.9751 46.5776 61.9761 38.3869 61.9761 30.1962ZM102.977 30.1962C104.462 30.1962 105.947 30.1952 107.432 30.1973C107.432 33.421 107.431 36.6456 107.432 39.8696C110.343 39.8706 113.253 39.8696 116.163 39.8706C116.165 36.6458 116.163 33.4212 116.165 30.1965C117.649 30.1965 119.134 30.1954 120.618 30.1975C120.619 38.3871 120.619 46.5778 120.618 54.7677C119.134 54.7686 117.649 54.7686 116.165 54.7686C116.163 51.187 116.165 47.6055 116.163 44.0238C113.253 44.0227 110.343 44.0227 107.432 44.0238C107.43 47.6055 107.433 51.187 107.431 54.7686C105.946 54.7686 104.461 54.7698 102.977 54.7677C102.976 46.5776 102.977 38.3869 102.977 30.1962ZM131.592 30.1973C133.162 30.1944 134.732 30.1973 136.303 30.1962C139.25 38.3862 142.195 46.5765 145.139 54.7673C143.524 54.7693 141.91 54.7673 140.295 54.7682C139.651 52.909 139.009 51.0491 138.368 49.1885C135.427 49.1845 132.485 49.1855 129.544 49.1875C128.938 51.0482 128.331 52.9085 127.723 54.7682C126.147 54.7682 124.573 54.7693 122.998 54.7673C125.861 46.5766 128.729 38.3878 131.592 30.1973ZM130.916 45.0466C132.922 45.0476 134.929 45.0476 136.936 45.0466C135.923 42.0081 134.909 38.9693 133.896 35.9317C132.9 38.9693 131.908 42.0081 130.916 45.0466ZM147.535 30.1962C150.56 30.1952 153.586 30.1973 156.612 30.1962C157.915 30.1973 159.226 30.2286 160.515 30.4459C161.341 30.5866 162.17 30.8242 162.873 31.2964C164.239 32.2064 165.076 33.7516 165.405 35.333C165.693 36.8094 165.635 38.3715 165.146 39.7994C164.656 41.2171 163.633 42.46 162.278 43.1254C161.491 43.5349 160.627 43.7695 159.757 43.9232C160.691 44.5459 161.573 45.267 162.274 46.1498C163.214 47.3754 163.967 48.7293 164.731 50.0681C165.61 51.6343 166.493 53.1997 167.371 54.767C165.596 54.7691 163.82 54.767 162.046 54.768C160.514 52.2552 159.031 49.711 157.463 47.2205C156.844 46.2882 156.226 45.2283 155.136 44.7896C154.128 44.4437 153.039 44.5246 151.991 44.5084C151.988 47.9284 151.991 51.3482 151.99 54.767C150.504 54.768 149.02 54.768 147.535 54.767C147.534 46.5776 147.535 38.3869 147.535 30.1962ZM151.99 34.3563C151.989 36.4323 151.99 38.5084 151.989 40.5844C153.53 40.5803 155.071 40.5962 156.612 40.5702C157.442 40.5317 158.284 40.5317 159.098 40.3415C160.021 40.107 160.702 39.2756 160.888 38.3596C161.069 37.4334 161.037 36.3998 160.521 35.5809C160.037 34.8074 159.114 34.4009 158.221 34.3966C156.145 34.3291 154.067 34.3645 151.99 34.3563ZM169.853 30.1973C171.34 30.1962 172.826 30.1962 174.313 30.1973C174.315 33.8324 174.311 37.4669 174.315 41.1019C177.316 37.4678 180.312 33.8284 183.315 30.1952C185.311 30.1973 187.307 30.1952 189.304 30.1962C186.533 33.3857 183.764 36.5759 180.995 39.7653C183.912 44.7676 186.836 49.7659 189.754 54.7675C187.832 54.7695 185.912 54.7684 183.992 54.7684C181.966 50.927 179.948 47.0804 177.923 43.2389C177.156 44.1074 176.388 44.9751 175.627 45.8477C175.199 46.3593 174.712 46.8286 174.322 47.3644C174.301 49.8316 174.32 52.2999 174.313 54.7675C172.826 54.7684 171.34 54.7684 169.853 54.7675C169.852 46.5776 169.852 38.3869 169.853 30.1973Z" fill="#919498"/>
</g>
<defs>
<clipPath id="clip0_1120_222">
<rect width="200" height="55.2" fill="white"/>
</clipPath>
</defs>
</svg>
