<svg width="200" height="59" viewBox="0 0 200 59" fill="none" xmlns="http://www.w3.org/2000/svg">
<g clip-path="url(#clip0_1120_224)">
<path d="M25.3055 36.9108L23.5161 32.7303H10.5054L8.7533 36.9108H1.78198L15.9856 4.22031H18.1478L32.3141 36.9108H25.3055ZM21.242 27.3446L16.9921 16.4981L12.7422 27.3446H21.242ZM33.9545 24.8591C33.8798 21.5072 35.222 18.2682 37.6451 15.9331C40.031 13.5228 43.3115 12.2046 46.704 12.2799C51.4013 12.2799 54.831 14.276 57.0679 18.2305L52.557 21.7706C50.9539 19.4358 49.0526 18.2682 46.8159 18.2682C45.1383 18.2305 43.498 18.9084 42.3424 20.1512C41.1493 21.4317 40.5156 23.0888 40.5903 24.8591C40.5156 26.6292 41.1493 28.3238 42.3424 29.6044C43.498 30.8472 45.1383 31.5251 46.8159 31.4875C49.0154 31.4875 50.9539 30.32 52.557 28.0226L57.0679 31.5251C56.0613 33.3328 54.6073 34.8771 52.818 35.9316C50.9539 36.9861 48.8662 37.551 46.7413 37.5134C43.349 37.6264 40.0682 36.2705 37.6824 33.8226C35.222 31.5251 33.8425 28.2486 33.9545 24.8591ZM61.6532 26.3279V12.8449H68.14V26.855C68.0281 29.2655 69.8548 31.3369 72.2407 31.4875H72.6881C73.8811 31.5251 75.0367 31.0732 75.8569 30.207C76.7143 29.3031 77.1616 28.098 77.1244 26.8927V12.8449H83.611V26.3279C83.611 29.642 82.5671 32.316 80.5169 34.3875C78.4292 36.4589 75.8196 37.5134 72.6881 37.5134C69.482 37.5134 66.8352 36.4965 64.7848 34.4251C62.697 32.3538 61.6532 29.642 61.6532 26.3279ZM111.72 21.9967V36.9108H105.271V22.8629C105.308 21.62 104.898 20.4149 104.04 19.4734C103.183 18.6072 102.027 18.1552 100.834 18.1928C99.604 18.1552 98.4484 18.6072 97.591 19.4734C96.7336 20.3772 96.2488 21.5824 96.3235 22.8629V36.9108H89.8367V12.8072H95.8387V14.9916C97.6282 13.1838 99.9769 12.2799 102.81 12.2799C105.569 12.2799 107.768 13.1462 109.371 14.9163C110.974 16.6864 111.72 19.0215 111.72 21.9967ZM139.866 27.0811H123.165C123.497 28.5099 124.331 29.7681 125.513 30.6213C126.818 31.4875 128.31 31.9018 129.875 31.864C132.298 31.8264 134.647 30.9978 136.511 29.4161L139.195 33.8978C136.551 36.2294 133.161 37.5138 129.652 37.5134C126.185 37.664 122.829 36.3459 120.332 33.8978C117.834 31.6005 116.492 28.3239 116.604 24.9343C116.492 21.5824 117.796 18.3058 120.22 15.9708C122.531 13.5228 125.737 12.2046 129.092 12.3176C132.373 12.3176 135.057 13.3721 137.145 15.5189C139.232 17.6279 140.388 20.5279 140.314 23.5031C140.314 24.7101 140.164 25.9123 139.866 27.0811ZM123.165 22.4862H134.013C134.013 21.1305 133.454 19.8877 132.485 18.9837C131.478 18.0799 130.173 17.5903 128.831 17.6279C127.527 17.5903 126.222 18.0799 125.215 18.9461C124.209 19.8499 123.463 21.0928 123.165 22.4862ZM163.203 4.10732C163.166 3.01514 163.613 1.96061 164.396 1.1697C165.179 0.416464 166.223 -0.0354782 167.341 0.00218363C168.46 -0.0354782 169.503 0.416464 170.286 1.1697C171.107 1.92294 171.554 2.97747 171.517 4.10732C171.554 5.19952 171.107 6.25405 170.286 6.96961C169.503 7.72286 168.422 8.17481 167.341 8.13714C166.26 8.17481 165.179 7.72286 164.396 6.96961C163.613 6.21638 163.203 5.16185 163.203 4.10732ZM164.135 36.9108V12.8449H170.622V36.9108H164.135ZM198.73 36.9108H191.461L186.354 29.2277L181.209 36.9108H173.94L182.663 24.52L174.536 12.8449H181.806L186.391 19.8123L190.903 12.8449H198.172L189.971 24.4824L198.73 36.9108ZM154.368 7.04495H147.919V13.0708H143.221V18.5695H147.993V36.9108H154.293V18.5695H160.109V13.0708H154.368V7.04495Z" fill="grey"/>
<path d="M145.101 52.5194C145.101 53.042 145.026 53.5272 144.839 54.0125C144.652 54.4229 144.428 54.7963 144.091 55.1321C143.792 55.4308 143.418 55.6921 143.007 55.8413C142.595 56.0281 142.109 56.1026 141.66 56.1026C141.286 56.1026 140.95 56.0281 140.613 55.916C140.351 55.804 140.09 55.6547 139.865 55.4681V55.9534H137.808V46.062H139.865V49.4587C140.09 49.2721 140.314 49.1602 140.576 49.0481C140.912 48.8989 141.249 48.8615 141.623 48.8615C142.072 48.8615 142.558 48.9361 142.969 49.1228C143.381 49.3094 143.755 49.5334 144.054 49.8694C144.39 50.2051 144.615 50.5785 144.802 51.0264C144.989 51.5116 145.101 51.9969 145.101 52.5194ZM139.828 52.5194C139.79 53.0046 139.977 53.4525 140.276 53.8259C140.576 54.1617 140.987 54.3483 141.399 54.311C141.847 54.311 142.259 54.1244 142.558 53.8259C143.194 53.0793 143.194 51.9594 142.558 51.213C142.259 50.8771 141.847 50.6905 141.399 50.7277C140.95 50.7277 140.538 50.9143 140.276 51.213C139.977 51.549 139.828 52.0341 139.828 52.5194ZM149.439 58.7154H147.307L148.43 55.9906L145.737 49.0481H147.981L149.552 53.3406L151.16 49.0481H153.291L149.439 58.7154ZM158.939 55.9534V46.062H161.033V55.9534H158.939ZM165.184 52.5194V55.9906H163.165V49.0481H165.147V49.5334C165.371 49.3468 165.596 49.1974 165.857 49.0855C166.157 48.9734 166.493 48.8989 166.792 48.8989C167.54 48.8615 168.288 49.16 168.849 49.6826C169.41 50.3172 169.672 51.1383 169.635 51.9594V55.9906H167.615V52.1088C167.615 51.7728 167.54 51.4369 167.353 51.1383C167.166 50.8771 166.83 50.6905 166.456 50.7277C166.044 50.6905 165.67 50.8771 165.483 51.213C165.259 51.6235 165.147 52.0716 165.184 52.5194ZM177.825 49.0481L175.357 55.9906H173.3L170.869 49.0481H173.001L174.347 53.3406L175.693 49.0481H177.825ZM178.984 47.0699C178.984 46.7712 179.097 46.4727 179.321 46.2486C179.545 46.0248 179.845 45.9128 180.144 45.9128C180.451 45.9147 180.744 46.0372 180.961 46.2538C181.179 46.4705 181.301 46.7637 181.303 47.0699C181.303 47.3684 181.191 47.6672 180.967 47.891C180.742 48.115 180.443 48.227 180.144 48.227C179.837 48.225 179.543 48.1024 179.326 47.8859C179.109 47.6694 178.986 47.3761 178.984 47.0699ZM179.134 55.9534V49.0481H181.154V55.9906H179.134V55.9534ZM188.259 53.3406L189.605 54.647C189.27 55.0949 188.82 55.4681 188.334 55.7294C187.772 55.9906 187.174 56.14 186.576 56.1026C186.09 56.1026 185.567 56.0281 185.117 55.8413C184.67 55.6547 184.295 55.4308 183.958 55.0949C183.622 54.7653 183.355 54.3719 183.173 53.9378C182.799 53.0046 182.799 51.9969 183.173 51.0637C183.36 50.653 183.622 50.2426 183.958 49.9439C184.295 49.6081 184.67 49.384 185.117 49.1974C185.567 49.0108 186.09 48.8989 186.576 48.9361C187.138 48.8989 187.736 49.0481 188.222 49.3094C188.672 49.5706 189.119 49.9066 189.457 50.3172L188.11 51.6235C187.923 51.3996 187.699 51.213 187.473 51.0264C187.213 50.8771 186.95 50.8024 186.651 50.8024C186.202 50.8024 185.754 50.9517 185.455 51.2877C185.147 51.6321 184.978 52.0771 184.978 52.538C184.978 52.9991 185.147 53.444 185.455 53.7884C185.754 54.1244 186.202 54.2738 186.651 54.2738C186.987 54.2738 187.286 54.1991 187.549 54.0497C187.811 53.8257 188.072 53.6018 188.259 53.3406ZM193.571 55.9906C192.897 56.0281 192.224 55.804 191.738 55.3561C191.327 54.8336 191.101 54.1991 191.139 53.5272V50.9143H190.242V49.0481H191.139V47.1072H193.158V49.0481H194.692V50.9143H193.158V53.3033C193.121 53.5646 193.196 53.8259 193.383 53.975C193.607 54.087 193.831 54.1617 194.057 54.1617H194.655V55.9906H193.571ZM196.413 47.0699C196.413 46.7712 196.525 46.4727 196.749 46.2486C196.972 46.0248 197.273 45.9128 197.572 45.9128C197.879 45.9147 198.172 46.0372 198.389 46.2538C198.605 46.4705 198.728 46.7637 198.73 47.0699C198.73 47.3684 198.618 47.6672 198.394 47.891C198.171 48.115 197.872 48.227 197.572 48.227C197.273 48.227 196.972 48.115 196.749 47.891C196.561 47.7044 196.413 47.4059 196.413 47.0699ZM196.6 55.9534V49.0481H198.618V55.9906H196.6V55.9534Z" fill="grey"/>
</g>
<defs>
<clipPath id="clip0_1120_224">
<rect width="200" height="58.7156" fill="white"/>
</clipPath>
</defs>
</svg>
